<?xml version="1.0" encoding="UTF-8"?>
<svg width="25px" height="27px" viewBox="0 0 25 27" version="1.1" xmlns="http://www.w3.org/2000/svg" xmlns:xlink="http://www.w3.org/1999/xlink">
    <!-- Generator: Sketch 53 (72520) - https://sketchapp.com -->
    <title>分组</title>
    <desc>Created with Sketch.</desc>
    <defs>
        <polygon id="path-1" points="0 0 24.9998641 0 24.9998641 27 0 27"></polygon>
    </defs>
    <g id="主页面" stroke="none" stroke-width="1" fill="none" fill-rule="evenodd">
        <g id="P1--adjust" transform="translate(-82.000000, -17.000000)">
            <g id="header">
                <g id="logo-new" transform="translate(82.000000, 17.000000)">
                    <g id="分组">
                        <mask id="mask-2" fill="white">
                            <use xlink:href="#path-1"></use>
                        </mask>
                        <g id="Clip-2"></g>
                        <path d="M10.9710598,0 C10.5525815,0 10.2134511,0.348244898 10.2134511,0.777765306 L10.2134511,4.95697959 L10.2134511,14.1849184 C10.2134511,15.5539286 11.2944293,16.6634082 12.628125,16.6634082 C13.9615489,16.6634082 15.0427989,15.5539286 15.0427989,14.1849184 L15.0427989,5.26885714 C15.0427989,5.09721429 15.1811141,4.95697959 15.3501359,4.95697959 L20.1574728,4.95697959 L20.1574728,14.1769286 L20.1381793,14.1769286 C20.1379076,18.5107041 16.7153533,22.0234592 12.4936141,22.0234592 C8.27160326,22.0234592 4.84904891,18.5107041 4.84877717,14.1769286 L4.8294837,14.1769286 L4.8294837,4.95257143 L2.36861413,4.95257143 L0.306929348,4.95257143 C0.13736413,4.95257143 -0.000135869565,5.09170408 -0.000135869565,5.26362245 L-0.000135869565,14.9522143 L0.0235054348,14.9522143 C0.414538043,21.6732857 5.84769022,27 12.4936141,27 C19.3688859,27 24.9466033,21.2991429 24.9860054,14.2515918 L24.9868207,14.2515918 L24.9868207,4.95697959 L24.9998641,4.95697959 L24.9998641,0 L10.9710598,0 Z" id="Fill-1" fill="#1B82FF" mask="url(#mask-2)"></path>
                    </g>
                </g>
            </g>
        </g>
    </g>
</svg>